<svg width="108" height="110" viewBox="0 0 108 110" fill="none" xmlns="http://www.w3.org/2000/svg">
<ellipse cx="53.6862" cy="54.8152" rx="53.6862" ry="54.8152" fill="#B1B4C5"/>
<ellipse cx="53.6862" cy="52.385" rx="53.6862" ry="52.385" fill="url(#paint0_linear_0_1169)"/>
<ellipse cx="53.6863" cy="53.4651" rx="41.2137" ry="41.0439" fill="#E1E4ED"/>
<path d="M69.652 47.5703C69.1767 41.5739 62.444 42.1862 62.444 42.1862C59.6023 37.1753 55.163 40.8048 55.163 40.8048C51.7525 35.8937 47.4763 40.4446 47.4763 40.4446C40.1036 39.6493 40.3893 45.679 40.3893 45.679C40.2158 47.5957 41.4284 53.5258 41.4284 53.5258C40.3346 50.1079 37.9622 52.9451 37.9622 52.9451C35.0456 57.4472 37.241 59.9116 37.241 59.9116C41.1876 64.5385 49.5982 70.0915 49.5982 70.0915C52.6436 71.8367 51.3555 73.3929 51.3555 73.3929L69.7758 70.3482L70.1993 66.8539C72.9994 58.3823 69.652 47.5703 69.652 47.5703Z" fill="#8A90AC"/>
<defs>
<linearGradient id="paint0_linear_0_1169" x1="0" y1="-3.05176e-05" x2="0" y2="104.77" gradientUnits="userSpaceOnUse">
<stop stop-color="white" stop-opacity="0.0966455"/>
<stop offset="1" stop-color="white" stop-opacity="0.01"/>
</linearGradient>
</defs>
</svg>
