<svg width="108" height="110" viewBox="0 0 108 110" fill="none" xmlns="http://www.w3.org/2000/svg">
<ellipse cx="53.6862" cy="54.8152" rx="53.6862" ry="54.8152" fill="#B1B4C5"/>
<ellipse cx="53.6862" cy="52.385" rx="53.6862" ry="52.385" fill="url(#paint0_linear_0_1161)"/>
<ellipse cx="53.6863" cy="53.4651" rx="41.2137" ry="41.0439" fill="#E1E4ED"/>
<path d="M42.9274 53.1138L47.3792 46.8799C45.5288 46.5728 42.1308 46.5047 39.3474 49.2766C34.96 53.646 33.1831 63.085 32.8126 65.3699L43.9635 76.4748C45.9708 76.3036 54.8585 75.1219 63.4224 66.5933C63.5134 66.4091 65.5994 64.874 63.8939 63.1755C63.0798 62.3648 61.7323 62.3799 60.9006 63.2082C60.4771 63.6299 59.8185 63.6361 59.4039 63.2232C58.9893 62.8102 58.9955 62.1544 59.4189 61.7327L62.4451 58.719C63.983 57.1874 62.5333 54.6037 60.387 55.2244L57.9095 57.3366C57.457 57.7294 56.7845 57.6613 56.4127 57.2333C56.0284 56.7902 56.1105 56.1193 56.5478 55.7416C65.202 48.1799 63.9387 49.0906 69.5062 43.8934C71.5865 42.1685 68.9697 39.1175 66.9198 40.8644L53.4508 52.9265C53.059 53.2589 52.4584 53.2652 52.0729 52.9114C51.6279 52.5287 51.6177 51.9773 51.9085 51.5417L61.3035 36.9964C62.6767 35.1443 59.974 33.0873 58.5275 34.9544L44.6365 54.3022C44.3015 54.7844 43.6265 54.8951 43.1663 54.5578C42.7049 54.2493 42.5785 53.5796 42.9274 53.1138Z" fill="#8A90AC"/>
<defs>
<linearGradient id="paint0_linear_0_1161" x1="0" y1="0" x2="0" y2="104.77" gradientUnits="userSpaceOnUse">
<stop stop-color="white" stop-opacity="0.0966455"/>
<stop offset="1" stop-color="white" stop-opacity="0.01"/>
</linearGradient>
</defs>
</svg>
